<?xml version="1.0" encoding="UTF-8" standalone="no"?>
<!-- Created with Inkscape (http://www.inkscape.org/) -->

<svg
   xmlns:dc="http://purl.org/dc/elements/1.1/"
   xmlns:cc="http://creativecommons.org/ns#"
   xmlns:rdf="http://www.w3.org/1999/02/22-rdf-syntax-ns#"
   xmlns:svg="http://www.w3.org/2000/svg"
   xmlns="http://www.w3.org/2000/svg"
   xmlns:sodipodi="http://sodipodi.sourceforge.net/DTD/sodipodi-0.dtd"
   xmlns:inkscape="http://www.inkscape.org/namespaces/inkscape"
   width="210mm"
   height="297mm"
   id="svg2"
   version="1.1"
   inkscape:version="0.48.5 r10040"
   sodipodi:docname="inkscape-chapi16.svg"
   inkscape:export-filename="/home/david/proy/chapi/images/20160410-inkscape/inkscape-chapi16.png"
   inkscape:export-xdpi="102"
   inkscape:export-ydpi="102">
  <defs
     id="defs4">
    <inkscape:perspective
       sodipodi:type="inkscape:persp3d"
       inkscape:vp_x="0 : 526.18109 : 1"
       inkscape:vp_y="0 : 1000 : 0"
       inkscape:vp_z="744.09448 : 526.18109 : 1"
       inkscape:persp3d-origin="372.04724 : 350.78739 : 1"
       id="perspective4646" />
  </defs>
  <sodipodi:namedview
     id="base"
     pagecolor="#ffffff"
     bordercolor="#666666"
     borderopacity="1.0"
     inkscape:pageopacity="0.0"
     inkscape:pageshadow="2"
     inkscape:zoom="0.9983453"
     inkscape:cx="159.68652"
     inkscape:cy="692.11043"
     inkscape:document-units="px"
     inkscape:current-layer="layer6"
     showgrid="false"
     inkscape:window-width="1366"
     inkscape:window-height="714"
     inkscape:window-x="0"
     inkscape:window-y="0"
     inkscape:window-maximized="1"
     showguides="true"
     inkscape:guide-bbox="true" />
  <metadata
     id="metadata7">
    <rdf:RDF>
      <cc:Work
         rdf:about="">
        <dc:format>image/svg+xml</dc:format>
        <dc:type
           rdf:resource="http://purl.org/dc/dcmitype/StillImage" />
        <dc:title />
      </cc:Work>
    </rdf:RDF>
  </metadata>
  <g
     inkscape:groupmode="layer"
     id="layer5"
     inkscape:label="azul"
     style="display:inline"
     sodipodi:insensitive="true">
    <path
       style="fill:#b1a2e3"
       d="m 240,375.36218 0,-190.5 142,0 142,0 0,190.5 0,190.5 -142,0 -142,0 0,-190.5 z"
       id="path3370"
       inkscape:connector-curvature="0" />
  </g>
  <g
     inkscape:groupmode="layer"
     id="layer2"
     inkscape:label="blanco"
     style="display:inline"
     sodipodi:insensitive="true">
    <path
       style="fill:#eee0e0;fill-opacity:1;display:inline"
       d="m 339.75,261.71875 c -1.80345,0.0303 -3.88814,0.42402 -6.59375,1.09375 -6.35403,1.57285 -21.25,13.11619 -21.25,16.46875 0,0.73553 -0.39173,1.34375 -0.875,1.34375 -3.09006,0 -4.56894,18.02976 -2,24.46875 2.49278,6.24806 16.87355,22.26822 18.875,21.03125 0.54425,-0.33636 1,-0.20581 1,0.3125 0,0.89392 1.22455,1.48799 7,3.28125 3.77793,1.17304 11.95127,0.049 17,-2.3125 2.475,-1.15767 6.19691,-3.87893 8.28125,-6.0625 3.90411,-4.09 7.37193,-9.69167 6,-9.71875 -0.42662,-0.008 -0.19613,-0.41382 0.53125,-0.875 1.50802,-0.95614 2.08564,-12.15501 0.96875,-18.75 -1.77172,-10.46166 -8.97357,-20.07355 -20.4375,-27.34375 -3.2479,-2.05976 -5.49424,-2.98808 -8.5,-2.9375 z m 117.40625,77.75 c -1.1652,-0.002 -2.69633,0.0801 -4.75,0.15625 -8.76095,0.32474 -9.85509,1.15293 -9.28125,7.125 0.49537,5.15547 2.3705,8.00717 6.71875,10.3125 3.60622,1.91192 3.75051,1.88802 6.96875,-1.1875 3.24489,-3.101 5.4614,-9.88821 4.5,-13.71875 -0.53876,-2.14657 -0.66066,-2.68284 -4.15625,-2.6875 z"
       id="path4557-5"
       inkscape:connector-curvature="0"
       sodipodi:nodetypes="cssssssssscssscccssssc" />
  </g>
  <g
     inkscape:groupmode="layer"
     id="layer4"
     inkscape:label="amarillo"
     style="display:inline"
     sodipodi:insensitive="true">
    <path
       style="fill:#d6c94b;fill-opacity:1;stroke:none;display:inline"
       d="m 291.6875,246.9375 c -1.21853,0.0533 -2.20792,0.24887 -2.625,0.53125 -0.96932,0.65624 -1.75152,6.48737 -2.75,20.78125 -1.40503,20.11387 -4.53459,43.71984 -7,52.875 -2.98988,11.10281 -5.4023,30.23139 -5.40625,42.75 0.43654,13.08778 -4.08098,12.75 8.375,12.75 9.09282,0 9.625,-0.30969 9.625,-5.96875 0,-2.96614 6.70742,-17.03125 8.125,-17.03125 0.94229,0 1.70049,2.9011 2.09375,8 0.23097,2.99468 0.64219,3.5 2.78125,3.5 2.26037,0 2.54793,-0.45564 3,-4.90625 0.5752,-5.66283 2.47405,-7.05749 4.0625,-2.9375 1.0738,2.78511 0.74593,13.22491 -0.59375,18.53125 -1.062,4.20648 2.61984,5.36233 22.53125,7.1875 29.25682,2.68181 39.16609,3.66936 47,4.65625 20.58723,2.59353 40.00224,3.96796 56.375,4 13.81377,0.027 18.71806,0.37865 20.625,1.46875 3.67186,2.09903 4,1.89394 4,-2.5 0,-3.31599 0.33204,-4 1.96875,-4 2.13385,0 5.03125,4.55568 5.03125,7.90625 0,2.44826 0.80498,2.96393 6.21875,4.03125 7.1913,1.41775 7.77381,1.28129 9.21875,-2.1875 0.74459,-1.7875 1.64491,-5.5 2,-8.25 0.35509,-2.75 1.53914,-10.4 2.625,-17 1.08586,-6.6 2.90681,-17.625 4.03125,-24.5 1.12445,-6.875 3.14437,-18.575 4.5,-26 5.37101,-29.41774 6.3297,-34.77869 7.4375,-42 1.30861,-8.53023 1.0026,-14.5 -0.71875,-14.5 -0.64441,0 -4.60677,4.38217 -8.8125,9.75 -6.55408,8.36509 -11.39781,12.75 -14.09375,12.75 -0.66736,0 0.0129,-5.35393 1.21875,-9.75 0.95879,-3.49547 -2.68815,-2.89558 -7.6875,1.28125 -2.33237,1.94864 -5.06592,4.01243 -6.09375,4.5625 -2.89412,1.54889 -3.40903,-1.43848 -0.9375,-5.4375 1.15349,-1.86638 2.09375,-3.94 2.09375,-4.625 0,-1.43408 -3.73363,-0.98501 -8.71875,1.0625 -5.97571,2.45437 -5.59703,-1.29833 0.8125,-7.96875 2.25345,-2.34516 5.82713,-5.50251 7.9375,-7.03125 l 3.84375,-2.78125 -15.1875,-0.59375 c -16.35129,-0.64905 -25.59023,-1.85323 -38.1875,-4.90625 -10.88324,-2.63761 -34.65895,-3.87982 -59.75,-3.125 -11.4125,0.34333 -20.75,0.86063 -20.75,1.15625 0,1.41991 5.59898,6.15625 7.28125,6.15625 1.0497,0 3.21884,-0.92772 4.8125,-2.0625 3.99093,-2.84179 5.06671,-1.79612 4.28125,4.125 -0.35939,2.70918 -0.23336,4.9168 0.25,4.90625 0.48336,-0.0106 2.64976,-1.58555 4.84375,-3.5 6.69077,-5.83829 8.06162,-4.43351 4.375,4.4375 -1.17872,2.8363 -1.87784,5.40341 -1.5625,5.71875 0.31534,0.31535 2.84035,-0.71592 5.625,-2.28125 4.0789,-2.29286 5.42845,-2.60583 6.84375,-1.6875 2.67281,1.73427 1.80641,5.86526 -2.1875,10.53125 -1.95388,2.28266 -3.30537,4.41339 -3,4.71875 0.30536,0.30536 2.84603,0.77542 5.65625,1.0625 2.81022,0.28709 5.25435,0.9749 5.4375,1.53125 0.18315,0.55636 -1.45413,2.13902 -3.65625,3.5 -5.52164,3.41256 -5.20121,5 1,5 4.60613,0 5,0.20321 5,2.40625 0,1.85658 -0.8946,2.72622 -4,3.96875 -4.6364,1.85512 -5.20293,4.10936 -1.25,4.96875 7.05556,1.53392 6.69719,5.48699 -0.625,7.0625 -2.28027,0.49065 -4.125,1.27815 -4.125,1.75 0,0.47186 0.3375,0.84169 0.75,0.84375 0.4125,0.002 2.25704,0.91146 4.09375,2.03125 4.5586,2.77924 2.81138,4.96875 -3.96875,4.96875 -2.68266,0 -4.875,0.27117 -4.875,0.59375 0,0.32259 1.45193,2.60225 3.21875,5.0625 2.67398,3.72345 2.96729,4.60506 1.75,5.375 -2.0476,1.29512 -3.29286,1.19303 -5.53125,-0.5 -1.06762,-0.8075 -3.01615,-1.4825 -4.3125,-1.5 -1.84693,-0.0249 -2.19855,0.34745 -1.65625,1.71875 1.69531,4.28687 1.69107,7.84667 0,9.25 -1.52188,1.26304 -2.03298,1.06095 -4.65625,-1.875 -4.59182,-5.13913 -7.04564,-2.97295 -4.96875,4.375 1.86593,6.60159 -2.45953,7.69725 -6.3125,1.59375 -1.35961,-2.15377 -2.90284,-4.20082 -3.4375,-4.53125 -1.41593,-0.87509 -4.09375,3.45349 -4.09375,6.59375 0,7.5807 -2.91912,7.653 -5.53125,0.15625 -1.08887,-3.12502 -2.48685,-5.82689 -3.125,-6.03125 -0.63814,-0.20436 -2.84355,1.42687 -4.90625,3.65625 -2.06253,2.22938 -4.1321,4.0625 -4.59375,4.0625 -1.27958,0 -1.02065,-3.27841 0.65625,-8.03125 0.83087,-2.35495 1.31708,-4.49543 1.0625,-4.75 -0.25457,-0.25457 -2.36221,1.16588 -4.6875,3.15625 -6.61092,5.65869 -10.12407,4.54087 -5.875,-1.875 1.09275,-1.65 1.99638,-4.0971 2,-5.4375 l 0,-2.4375 -2.75,2.5625 c -7.28838,6.79782 -11.24643,5.71781 -5.6875,-1.5625 1.99236,-2.60931 3.4372,-4.9378 3.21875,-5.15625 -0.21845,-0.21846 -2.62073,0.74597 -5.34375,2.125 -8.98789,4.55179 -13.32547,1.67153 -7,-4.625 4.91179,-4.88933 4.60699,-5.95039 -1.6875,-5.96875 -8.92658,-0.026 -10.33754,-2.57429 -2.5,-4.5 4.93022,-1.21138 6.26284,-3.5 2.03125,-3.5 -1.59071,0 -3.77613,-0.62452 -4.84375,-1.40625 -1.81425,-1.32841 -1.62703,-1.50587 2.8125,-2.625 2.6125,-0.65857 4.75,-1.55646 4.75,-1.96875 0,-0.41228 -1.88058,-0.97602 -4.15625,-1.28125 -2.27567,-0.30523 -4.83525,-1.27275 -5.6875,-2.125 -1.39939,-1.39939 -1.14936,-1.67924 2.40625,-3.09375 2.16542,-0.86146 4.78873,-1.9172 5.84375,-2.34375 1.67139,-0.67575 1.41404,-1.04077 -2,-2.8125 -5.35447,-2.77872 -5.32886,-5.66155 0.0312,-6.34375 l 3.90625,-0.5 -4.21875,-2.9375 c -3.60783,-2.49191 -3.99055,-3.04457 -2.5625,-3.84375 0.9226,-0.51631 3.42749,-0.72386 5.5625,-0.4375 4.44656,0.59641 4.56553,0.42628 1.96875,-2.875 -1.95411,-2.48425 -1.7773,-6.41822 0.28125,-6.40625 0.62335,0.004 2.475,0.90725 4.125,2 5.76972,3.82114 6.97463,2.29096 3.0625,-3.90625 -1.34376,-2.12865 -2.17917,-4.13333 -1.84375,-4.46875 1.10655,-1.10654 4.86925,-0.64969 6.84375,0.84375 1.06762,0.8075 2.725,1.4825 3.6875,1.5 1.87343,0.0341 2.40906,-2.44339 0.75,-3.46875 -1.34359,-0.83038 -1.27028,-6.21945 0.0937,-7.0625 0.59752,-0.36929 2.51509,0.72567 4.28125,2.4375 1.76615,1.71183 3.72463,3.125 4.34375,3.125 2.01457,0 7.28125,-5.13183 7.28125,-7.09375 0,-1.80591 -0.94265,-1.90625 -16.875,-1.90625 -9.27323,0 -18.83573,-0.23258 -21.25,-0.53125 -0.60357,-0.0747 -1.21935,-0.13769 -1.8125,-0.15625 -0.44486,-0.0139 -0.87507,-0.0178 -1.28125,0 z m 95.875,7.375 2.90625,2.21875 c 1.6042,1.21567 4.9625,4.87593 7.4375,8.125 2.475,3.24908 5.31872,6.18974 6.3125,6.53125 2.10886,0.72472 1.85648,3.79503 -0.34375,4.21875 -0.8281,0.15948 -2.98223,-0.79773 -4.78125,-2.125 -1.79902,-1.32728 -4.89736,-4.49286 -6.875,-7.03125 -1.97764,-2.53839 -4.37617,-4.625 -5.34375,-4.625 -2.5829,0 -3.13772,-2.56956 -1.09375,-5.09375 z m 109.125,4.3125 c -3.73779,0 -5.39636,1.1764 -4.25,3.03125 0.76444,1.23688 4.37678,0.33493 6.4375,-1.625 1.26516,-1.2033 0.97072,-1.40625 -2.1875,-1.40625 z m -18.125,3 c -1.52133,0 -3.33791,1.02846 -4.59375,2.625 -3.73828,4.75246 -2.36183,5.73673 2.96875,2.125 4.26896,-2.89243 4.90086,-4.75 1.625,-4.75 z m 9.5,3.5312 c -0.196,0.004 -0.37495,0.0369 -0.53125,0.125 -2.54264,1.43405 -4.56596,3.65414 -4.0625,4.46875 0.71916,1.16363 1.06041,1.1235 4.5625,-0.6875 2.45025,-1.26708 2.77283,-1.84287 1.8125,-3 -0.48843,-0.58853 -1.19325,-0.91879 -1.78125,-0.90625 z m -36.1875,49.71875 c 5.05308,0.0192 11.58112,1.01652 15.03125,2.78125 4.52004,2.31198 12.0005,7.75901 11.96875,8.71875 -0.0253,0.76494 -6.51339,4.28307 -7.78125,4.21875 -0.3899,-0.0198 -1.98836,-1.08747 -3.5625,-2.375 -1.57414,-1.28753 -4.72414,-2.93889 -7,-3.65625 -5.77945,-1.82171 -15.625,-6.78561 -15.625,-7.875 0,-1.25526 3.03857,-1.82741 6.96875,-1.8125 z m -7.6875,15.9375 c 0.64196,-0.0444 1.40854,0.13588 2.53125,0.375 2.0209,0.43043 5.79618,0.83243 8.375,0.90625 6.7583,0.19348 9.42446,1.95367 10.71875,7.09375 2.295,9.11424 0.10894,17.60807 -5.75,22.4375 -4.49018,3.70118 -7.31564,3.76593 -13.375,0.25 -7.1914,-4.17279 -9.80432,-8.33439 -9.78125,-15.6875 0.0157,-5.00551 0.56721,-6.91326 3.09375,-10.9375 2.0547,-3.27271 2.77519,-4.3397 4.1875,-4.4375 z M 375.09375,346.125 c 1.88114,-0.0373 2.91004,1.15095 2.3125,3.90625 -2.15281,9.92674 -2.0558,10.53392 2.09375,14.15625 4.25192,3.71168 7.99787,4.80894 16.40625,4.84375 7.05269,0.0292 12.62495,-2.68107 16.09375,-7.84375 2.8869,-4.29664 4.99358,-5.44419 8.625,-4.75 3.14071,0.60039 5.38058,5.16803 6.03125,12.34375 0.55871,6.16155 0.34034,6.55891 -2.65625,4.6875 -1.46898,-0.91739 -3.05274,-0.85053 -7.25,0.40625 -2.94821,0.88278 -8.94375,1.89335 -13.34375,2.21875 -4.4,0.32539 -10.025,0.7775 -12.5,1 -2.475,0.2225 -5.43807,0.0925 -6.5625,-0.28125 -1.12443,-0.37378 -4.17302,-2.4875 -6.78125,-4.6875 -6.14919,-5.18675 -12.07624,-8.5 -15.21875,-8.5 -3.47555,0 -4.02012,-2.32861 -1.5,-6.40625 4.02538,-6.5132 10.65873,-11.02262 14.25,-11.09375 z M 302.25,371.375 c -2.06784,0.01 -4.34375,1.16832 -4.34375,2.625 0,1.71139 1.4842,2.45439 5.25,2.5625 2.09371,0.0601 2.75,-0.41034 2.75,-1.90625 0,-1.08065 -0.7875,-2.37064 -1.75,-2.875 -0.55115,-0.28881 -1.21697,-0.40953 -1.90625,-0.40625 z m 21.53125,18.28125 c -9.64329,-0.0111 -17.04571,0.70121 -18.53125,2.1875 -1.45828,1.45902 -1.76302,4.47634 -2.125,20.5 -0.26883,11.90076 -0.047,19.78125 0.625,21.5 2.49317,6.37668 24.78323,13.19681 51.65625,15.8125 6.05,0.58888 15.5,1.7708 21,2.625 19.63309,3.04921 58.60185,4.30809 71.09375,2.3125 3.75649,-0.6001 6.97814,-1.19689 7.125,-1.34375 0.29668,-0.29668 2.57378,-17.18926 4.21875,-31.25 1.52716,-13.05373 1.36754,-17.77463 -0.6875,-20.3125 -1.69866,-2.09776 -2.53473,-2.17569 -26.25,-2.5 -24.25272,-0.33166 -47.64032,-2.45683 -67.625,-6.125 -11.98709,-2.20022 -28.10148,-3.39201 -40.5,-3.40625 z m 86.09375,35 c 6.50172,-0.0197 14.06149,0.89991 14.6875,2.53125 0.29719,0.77446 -0.85623,3.51776 -2.5625,6.09375 -2.64955,4.0001 -3.09375,5.6263 -3.09375,11.03125 l 0,6.3125 -8.28125,0 c -6.118,0 -9.14659,-0.48104 -11.6875,-1.84375 -4.1855,-2.2447 -5.93017,-4.66358 -4.4375,-6.15625 0.73877,-0.73877 3.1819,-0.67086 8.1875,0.1875 3.92807,0.67359 7.44181,0.90194 7.8125,0.53125 1.31335,-1.31336 -1.89854,-3.69795 -7.21875,-5.375 -4.11744,-1.29791 -5.375,-2.18619 -5.375,-3.6875 0,-1.84741 0.51238,-1.90745 8.5,-1.34375 9.71043,0.68527 11.2995,-0.6398 2.75,-2.28125 -6.7491,-1.29578 -8.75,-2.22223 -8.75,-4.125 0,-1.25519 4.41186,-1.85967 9.46875,-1.875 z"
       id="path3370-8"
       inkscape:connector-curvature="0"
       sodipodi:nodetypes="ccssccssssssssssssssssssssssssssssssscccsssssscsscssscssssssssscsssssscscssssssscsscsscccscssssssssssssscccssscsssscscssssccscsssssssccssssscsscsssscscscssssccsssssscccssssssssscsssccsssscsssssssssssssscsscsssssssssssc" />
    <path
       style="fill:#d6c94f;fill-opacity:0.94117647;display:inline"
       d="m 341.08982,453.92233 c -2.76951,0.21794 -3.90135,1.05162 -5.43941,3.97429 -1.73561,3.29806 -1.82963,4.26058 -0.6998,8.72235 1.06043,4.1877 1.67372,5.02942 3.75351,5.02942 1.36992,0 3.76233,-1.4166 5.31216,-3.13019 3.72198,-4.1153 5.01701,-11.09925 2.44933,-13.29455 -1.01494,-0.86776 -3.4437,-1.45335 -5.37579,-1.30132 z m 56.239,13.50557 c -0.69042,-6.7e-4 -1.20461,0.28561 -1.81314,0.8441 -2.18206,2.00231 -1.9037,7.06095 0.60438,10.5864 2.55316,3.5888 4.89395,3.42932 6.90264,-0.52756 2.06865,-4.07504 0.8203,-8.34287 -2.92647,-10.05884 -1.22333,-0.56026 -2.077,-0.84342 -2.76741,-0.8441 z"
       id="path4557-9"
       inkscape:connector-curvature="0"
       sodipodi:nodetypes="sssssssscssss" />
  </g>
  <g
     inkscape:label="negro"
     inkscape:groupmode="layer"
     id="layer1"
     style="display:inline"
     sodipodi:insensitive="true">
    <path
       style="fill:#000000"
       d="m 409.56674,565.96065 c -0.36667,-0.36666 -0.66667,-17.69166 -0.66667,-38.5 l 0,-37.83333 5,0 c 4.78417,0 5.00066,0.11871 5.01531,2.75 0.008,1.5125 0.34592,2.3 0.75,1.75 1.37996,-1.8783 6.91197,-4.42476 11.04994,-5.08645 5.45555,-0.87238 13.69559,1.8023 17.86828,5.79995 8.99184,8.61464 10.82396,28.01112 3.80532,40.2865 -2.02195,3.53632 -8.48885,10.37894 -8.48885,8.98203 0,-0.29336 -1.32765,0.15317 -2.95034,0.99229 -4.7181,2.43982 -13.09276,1.98565 -17.41011,-0.94418 l -3.63955,-2.46987 0,12.46987 0,12.46986 -4.83333,0 c -2.65834,0 -5.13334,-0.3 -5.5,-0.66667 z m 29.03478,-30.29285 c 4.60068,-2.8052 6.56361,-7.31564 7.09686,-16.30724 0.7714,-13.00738 -3.45113,-20.48892 -12.11495,-21.46546 -4.1044,-0.46263 -4.74547,-0.20528 -8.45392,3.39365 -11.18399,10.85369 -6.67908,36.34755 6.42056,36.33483 2.1175,-0.002 5.29065,-0.88215 7.05145,-1.95578 z m -73.31731,10.89494 c -10.46092,-1.03739 -15.97185,-6.20386 -16.50681,-15.47502 -0.24375,-4.22426 1.06746,-7.52016 4.49763,-11.30541 3.44399,-3.8005 7.11648,-5.17516 19.30947,-7.22776 6.34062,-1.0674 11.93051,-2.18925 12.42198,-2.493 2.37008,-1.46479 -0.63035,-9.88274 -3.84544,-10.7887 -10.21748,-2.87912 -16.89035,-0.72069 -19.96889,6.45923 -1.04421,2.43535 -1.41584,2.55939 -5.71405,1.90708 -2.52846,-0.38372 -4.77761,-0.88087 -4.9981,-1.10476 -0.22049,-0.22389 0.21503,-2.20708 0.96784,-4.40708 3.65738,-10.68833 19.04056,-16.27336 33.02073,-11.98853 5.2996,1.6243 10.41301,5.48718 10.9482,8.27074 0.18165,0.94479 0.4078,1.71779 0.50255,1.71779 0.0948,0 0.40199,8.775 0.68276,19.5 0.33923,12.958 0.96096,20.59033 1.85321,22.75 l 1.34273,3.25 -5.86952,0 c -5.69773,0 -5.88864,-0.0871 -6.52299,-2.97522 l -0.65346,-2.97522 -2.67599,1.97361 c -5.03844,3.71597 -12.13881,5.57203 -18.79185,4.91225 z m 10.22532,-9.40935 c 5.65527,-1.13351 10.39054,-7.97426 10.39054,-15.01056 0,-3.28783 -0.0644,-3.33786 -3.25,-2.52476 -1.7875,0.45625 -6.77698,1.58445 -11.08773,2.50712 -8.67091,1.85592 -11.66227,3.992 -11.66227,8.32782 0,4.57707 5.77207,8.56528 11,7.60045 0.825,-0.15225 2.89926,-0.55729 4.60946,-0.90007 z m -121.10946,7.63614 c -11.30021,-5.41842 -16.59369,-18.84281 -13.5435,-34.34661 2.95339,-15.01181 10.3055,-21.2484 25.0435,-21.2437 10.61428,0.003 18.75606,5.95839 20.574,15.04809 0.58998,2.94993 0.44638,3.11552 -3.22828,3.72263 -5.6781,0.93811 -6.15142,0.84493 -6.84743,-1.34802 -3.2632,-10.28141 -16.84623,-11.63982 -22.64067,-2.26423 -2.6458,4.28101 -3.63928,15.69879 -1.91935,22.05879 2.5075,9.27234 11.18969,13.78163 18.87909,9.80529 3.10507,-1.6057 6.18264,-6.0786 6.18264,-8.98577 0,-2.3141 1.75035,-2.8732 6.68046,-2.13389 4.44509,0.66658 4.52569,0.74444 3.91773,3.78428 -1.00745,5.03722 -5.41668,11.59244 -9.70726,14.43181 -5.4533,3.60882 -17.36992,4.3584 -23.39093,1.47133 z m 79.75,1.10055 -5.25,-0.36728 -0.006,-18.19774 c -0.006,-19.92748 -0.83432,-24.89151 -4.5603,-27.33286 -3.22913,-2.11581 -11.61654,-1.40299 -14.58227,1.2393 -4.20005,3.74201 -4.85183,7.29066 -4.85183,26.41596 l 0,18.08438 -5.25,-0.30226 -5.25,-0.30226 -0.26203,-37.75 -0.26202,-37.75 5.51202,0 5.51203,0 0,12.56809 0,12.5681 2.75,-1.92929 c 9.2644,-6.49953 23.32652,-4.69068 28.73356,3.69607 2.23764,3.47077 2.32364,4.38321 2.45012,25.99492 0.0721,12.31884 0.36807,22.78134 0.65772,23.25 0.28965,0.46866 0.38758,0.76887 0.21762,0.66713 -0.16996,-0.10174 -2.67152,-0.35026 -5.55902,-0.55226 z m 132.75,-28.26276 0,-28 5,0 5,0 0,28 0,28 -5,0 -5,0 0,-28 z m 18,-28.5 c 0,-0.93333 0.94444,-1.5 2.5,-1.5 2.47306,0 2.5,-0.0928 2.5,-8.60841 l 0,-8.60841 -2.5,0.62746 c -1.77652,0.44588 -2.5,0.22161 -2.5,-0.77496 0,-1.38934 2.87553,-2.5957 6.25,-2.62203 1.55091,-0.0121 1.75,1.12401 1.75,9.98635 0,10 0,10 2.5,10 1.55556,0 2.5,0.56667 2.5,1.5 0,1.17949 -1.38889,1.5 -6.5,1.5 -5.11111,0 -6.5,-0.32051 -6.5,-1.5 z m 21.56596,-0.6896 c -5.2202,-4.49023 -4.3208,-16.33446 1.46767,-19.32779 4.40348,-2.27713 9.96637,-1.70265 9.96637,1.02922 0,0.92284 -1.08517,1.1523 -3.75553,0.79413 -4.31105,-0.57823 -6.61689,1.24904 -7.8163,6.19404 -0.70997,2.92715 -0.6796,2.95751 1.25083,1.25 1.08817,-0.9625 2.89486,-1.75 4.01488,-1.75 3.15336,0 7.30612,3.78827 7.30612,6.66485 0,6.32243 -7.47134,9.41428 -12.43404,5.14555 z m 8.84965,-3.1075 c 2.25783,-3.57941 -3.57428,-7.47596 -6.97065,-4.65722 -1.69188,1.40414 -1.88628,4.113 -0.4017,5.59758 1.57381,1.57381 6.15505,0.98946 7.37235,-0.94036 z m -123.24607,-3.2145 c -1.08659,-1.38137 -2.53184,-4.83017 -3.21166,-7.664 -1.0912,-4.54862 -1.02514,-5.54403 0.56373,-8.49438 0.98987,-1.83808 1.51846,-3.62328 1.17465,-3.9671 -0.8243,-0.82429 -20.14385,-3.94385 -29.8896,-4.82632 l -7.69333,-0.69662 1.096,2.90365 c 2.0907,5.5389 -1.8923,12.5235 -9.29528,16.30022 -5.73316,2.92484 -11.25014,2.61084 -13.94789,-0.79385 -1.91717,-2.41955 -2.09381,-3.47098 -1.46996,-8.75 1.36184,-11.52398 1.23567,-11.68872 -13.66619,-17.84317 -8.84426,-3.65267 -16.83001,-7.94271 -16.83001,-9.04126 0,-1.79333 -2.46508,-13.24076 -3.63182,-16.86557 -1.35686,-4.21546 -1.85352,-4.75 -4.41336,-4.75 -4.21676,0 -5.97538,4.54712 -7.54175,19.5 -1.11626,10.65607 -1.74709,11.35246 -5.98011,6.60162 -4.59422,-5.15623 -7.43296,-11.62031 -7.43296,-16.92557 0,-4.25981 0.50026,-5.48115 3.75,-9.15528 8.63438,-9.76195 9.25,-11.26229 9.25,-22.54344 l 0,-10.22171 -4.25,-0.67835 c -8.75985,-1.39818 -10.74976,-5.03105 -10.7235,-19.57727 0.0181,-10.01817 2.14757,-28.81828 4.30424,-38 3.66363,-15.59737 6.00711,-34.76959 8.59409,-70.30888 0.47278,-6.49488 1.12706,-12.07634 1.45396,-12.40324 1.69282,-1.69283 29.55398,-3.36035 65.89109,-3.94367 40.30317,-0.64698 40.77546,-0.67845 41.25637,-2.74934 0.26757,-1.15218 0.92437,-5.01987 1.45956,-8.59487 0.53519,-3.575 1.64152,-9.425 2.4585,-13 0.81699,-3.575 1.50124,-10.60181 1.52056,-15.61514 0.0296,-7.6741 0.36279,-9.5317 2.10771,-11.75 1.16806,-1.48495 3.07852,-2.63486 4.37756,-2.63486 4.34626,0 5.04314,2.29183 5.1399,16.90362 0.0797,12.03228 1.82271,26.47507 4.23562,35.09638 0.87361,3.1214 7.05736,5.34216 19.17434,6.88603 4.675,0.59567 12.775,1.78165 18,2.63552 5.225,0.85387 16.80391,1.90224 25.73091,2.32971 8.92699,0.42747 16.52862,1.07494 16.8925,1.43881 1.09283,1.09284 -1.71318,3.70881 -3.99585,3.72524 -3.33916,0.024 -5.36948,1.64277 -3.90159,3.11066 0.94567,0.94567 2.5043,0.30083 7.15059,-2.95836 6.74911,-4.73423 9.8653,-5.15324 14.2614,-1.91761 5.21276,3.8367 5.86204,6.23594 5.86204,21.66161 0,10.48512 -0.50329,16.16943 -2,22.58839 -1.1,4.7176 -2.00655,9.79752 -2.01455,11.28873 -0.008,1.4912 -0.65082,4.53677 -1.42847,6.76794 -0.77766,2.23117 -1.69042,6.95617 -2.02837,10.5 -2.149,22.53528 -11.12091,71.84564 -14.22446,78.17884 -1.64138,3.34945 -4.83672,4.26559 -9.93766,2.84924 -2.12657,-0.59048 -4.20399,-1.07611 -4.61649,-1.07917 -0.4125,-0.003 -0.75,2.65401 -0.75,5.90462 0,5.38518 0.35534,6.35974 4,10.97058 2.2,2.78321 4,5.52362 4,6.0898 0,0.56618 0.3596,1.02942 0.79911,1.02942 1.37411,0 3.20089,6.43414 3.20089,11.27394 0,8.91708 -3.55541,12.62519 -7.92022,8.26039 l -2.54636,-2.54637 2.73329,-2.53445 c 3.11839,-2.89154 3.5697,-6.93538 1.27028,-11.38199 -2.51345,-4.86047 -6.55932,-5.38237 -10.73227,-1.38443 -2.3138,2.21676 -2.80472,3.53123 -2.80472,7.50979 0,3.58521 0.51319,5.2621 2,6.53515 2.59984,2.22605 2.5364,2.54232 -0.8068,4.02216 -1.71725,0.76013 -3.49803,2.8091 -4.58746,5.27836 -3.23227,7.3261 -3.67038,7.42806 -33.42551,7.77883 l -26.41354,0.31137 2.05004,2.18863 c 4.00283,4.27342 4.9836,9.2666 3.13069,15.93862 l -1.04143,3.75 -5.88041,0 c -5.08862,0 -6.14644,-0.33819 -7.85604,-2.5116 z m 10.69985,-4.56477 c 2.03228,-3.62076 0.82331,-7.39406 -2.85757,-8.91874 -2.40364,-0.99561 -3.31706,-0.99645 -4.51272,-0.004 -2.14369,1.7791 -1.84995,6.28349 0.61402,9.41593 2.50826,3.18873 4.78291,3.02273 6.75627,-0.49305 z M 344.82224,468.859 c 3.65652,-3.65653 4.91326,-9.87048 2.39073,-11.82106 -0.99709,-0.77102 -3.36589,-1.29132 -5.264,-1.15624 -2.72081,0.19365 -3.85666,0.94264 -5.36767,3.5395 -1.70509,2.93039 -1.77891,3.78561 -0.66895,7.75 1.04178,3.72086 1.65139,4.45612 3.6946,4.45612 1.34583,0 3.69271,-1.24575 5.21529,-2.76832 z m 102.69024,-14.24964 c 3.75649,-0.6001 6.95014,-1.21125 7.097,-1.35811 0.29668,-0.29668 2.57945,-17.17653 4.22442,-31.23727 1.52716,-13.05373 1.36667,-17.79399 -0.68837,-20.33186 -1.69866,-2.09776 -2.53473,-2.17744 -26.25,-2.50175 -24.25272,-0.33166 -47.63197,-2.44555 -67.61665,-6.11372 -21.31039,-3.9115 -55.62355,-4.62574 -59.01907,-1.2285 -1.45828,1.45902 -1.77244,4.47634 -2.13442,20.5 -0.26883,11.90076 -0.0355,19.78402 0.63653,21.50277 2.49317,6.37668 24.76513,13.19668 51.63815,15.81237 6.05,0.58888 15.5,1.76958 21,2.62378 19.63309,3.04921 58.62051,4.32788 71.11241,2.33229 z m -48.57646,-5.8231 c -4.1855,-2.2447 -5.92958,-4.66531 -4.43691,-6.15798 0.73877,-0.73877 3.19044,-0.68773 8.19604,0.17063 3.92807,0.67359 7.44525,0.92142 7.81594,0.55073 1.31335,-1.31336 -1.8992,-3.71096 -7.21941,-5.38801 -4.11744,-1.29791 -5.39161,-2.16415 -5.39161,-3.66546 0,-1.84741 0.51238,-1.92976 8.5,-1.36606 9.71043,0.68527 11.2995,-0.62351 2.75,-2.26496 -6.7491,-1.29578 -8.75,-2.24405 -8.75,-4.14682 0,-2.869 23.05138,-2.22366 24.16428,0.6765 0.29719,0.77446 -0.8557,3.51575 -2.56197,6.09174 -2.64955,4.0001 -3.10231,5.60724 -3.10231,11.01219 l 0,6.32856 -8.2656,0 c -6.118,0 -9.15754,-0.47835 -11.69845,-1.84106 z m 85.41991,-52.40894 c 0.74459,-1.7875 1.64433,-5.5 1.99942,-8.25 0.35509,-2.75 1.53405,-10.4 2.61991,-17 1.08586,-6.6 2.89429,-17.625 4.01873,-24.5 1.12445,-6.875 3.15361,-18.575 4.50924,-26 5.37101,-29.41774 6.31898,-34.77869 7.42678,-42 1.30861,-8.53023 1.01976,-14.5 -0.70159,-14.5 -0.64441,0 -4.6127,4.39187 -8.81843,9.7597 -6.55408,8.36509 -11.39213,12.7403 -14.08807,12.7403 -0.66736,0 -0.0116,-5.35393 1.19425,-9.75 0.95879,-3.49547 -2.66821,-2.88384 -7.66756,1.29299 -2.33237,1.94864 -5.08162,3.99305 -6.10945,4.54312 -2.89412,1.54889 -3.40787,-1.42974 -0.93634,-5.42876 1.15349,-1.86638 2.09725,-3.95388 2.09725,-4.63888 0,-1.43408 -3.72671,-0.9755 -8.71183,1.07201 -5.97571,2.45437 -5.59023,-1.29183 0.8193,-7.96225 2.25345,-2.34516 5.82383,-5.51471 7.9342,-7.04345 l 3.83702,-2.77953 -15.18935,-0.60293 c -16.35129,-0.64905 -25.59207,-1.83081 -38.18934,-4.88383 -10.88324,-2.63761 -34.65895,-3.88197 -59.75,-3.12715 -11.4125,0.34333 -20.75,0.8661 -20.75,1.16172 0,1.41991 5.60045,6.14694 7.28272,6.14694 1.0497,0 3.21243,-0.92846 4.80609,-2.06324 3.99093,-2.84179 5.09242,-1.78366 4.30696,4.13746 -0.35939,2.70918 -0.25796,4.91715 0.2254,4.9066 0.48336,-0.0106 2.67391,-1.58555 4.8679,-3.5 6.69077,-5.83829 8.05444,-4.46163 4.36782,4.40938 -1.17872,2.8363 -1.88511,5.41491 -1.56977,5.73025 0.31534,0.31535 2.8517,-0.70737 5.63635,-2.2727 4.0789,-2.29286 5.40447,-2.62449 6.81977,-1.70616 2.67281,1.73427 1.81547,5.88775 -2.17844,10.55374 -1.95388,2.28266 -3.30266,4.40015 -2.99729,4.70551 0.30536,0.30536 2.85448,0.7901 5.6647,1.07718 2.81022,0.28709 5.25934,0.97718 5.44249,1.53353 0.18315,0.55636 -1.46873,2.12509 -3.67085,3.48607 -5.52164,3.41256 -5.20506,5.00238 0.99615,5.00238 4.60613,0 5,0.18838 5,2.39142 0,1.85658 -0.8946,2.74937 -4,3.9919 -4.6364,1.85512 -5.20293,4.10516 -1.25,4.96455 7.05556,1.53392 6.71814,5.4687 -0.60405,7.04421 -2.28027,0.49065 -4.14595,1.27815 -4.14595,1.75 0,0.47186 0.3375,0.8596 0.75,0.86166 0.4125,0.002 2.25277,0.91993 4.08948,2.03972 4.5586,2.77924 2.81821,4.95654 -3.96192,4.95654 -2.68266,0 -4.87756,0.26394 -4.87756,0.58652 0,0.32259 1.44558,2.59946 3.2124,5.05971 2.67398,3.72345 2.96729,4.62823 1.75,5.39817 -2.0476,1.29512 -3.28288,1.18043 -5.52127,-0.5126 -1.06762,-0.8075 -3.00177,-1.4825 -4.29812,-1.5 -1.84693,-0.0249 -2.20722,0.3469 -1.66492,1.7182 1.69531,4.28687 1.69807,7.85891 0.007,9.26224 -1.52188,1.26304 -2.03522,1.05586 -4.65849,-1.88009 -4.59182,-5.13913 -7.05758,-2.9735 -4.98069,4.37445 1.86593,6.60159 -2.44005,7.68096 -6.29302,1.57746 -1.35961,-2.15377 -2.90946,-4.1863 -3.44412,-4.51673 -1.41593,-0.87509 -4.10894,3.43313 -4.10894,6.57339 0,7.5807 -2.90811,7.67417 -5.52024,0.17742 -1.08887,-3.12502 -2.50188,-5.84906 -3.14003,-6.05342 -0.63814,-0.20436 -2.84793,1.45248 -4.91063,3.68186 -2.06253,2.22938 -4.12791,4.05342 -4.58956,4.05342 -1.27958,0 -1.00559,-3.27742 0.67131,-8.03026 0.83087,-2.35495 1.30239,-4.49001 1.04781,-4.74458 -0.25457,-0.25457 -2.36538,1.16562 -4.69067,3.15599 -6.61092,5.65869 -10.11689,4.53472 -5.86782,-1.88115 1.09275,-1.65 1.98979,-4.09669 1.99341,-5.43709 l 0.007,-2.43709 -2.75,2.5649 c -7.28838,6.79782 -11.23513,5.69673 -5.6762,-1.58358 1.99236,-2.60931 3.44373,-4.92294 3.22528,-5.14139 -0.21845,-0.21846 -2.62511,0.73111 -5.34813,2.11014 -8.98789,4.55179 -13.33699,1.70172 -7.01152,-4.59481 4.91179,-4.88933 4.60506,-5.97803 -1.68943,-5.99639 -8.92658,-0.026 -10.33583,-2.55168 -2.49829,-4.47739 4.93022,-1.21138 6.25434,-3.5073 2.02275,-3.5073 -1.59071,0 -3.76571,-0.63959 -4.83333,-1.42132 -1.81425,-1.32841 -1.63066,-1.49958 2.80887,-2.61871 2.6125,-0.65857 4.75,-1.53473 4.75,-1.94702 0,-0.41228 -1.86191,-0.99935 -4.13758,-1.30458 -2.27567,-0.30523 -4.83488,-1.25226 -5.68713,-2.10451 -1.39939,-1.39939 -1.16803,-1.70132 2.38758,-3.11583 2.16542,-0.86146 4.80032,-1.91528 5.85534,-2.34183 1.67139,-0.67575 1.41404,-1.03718 -2,-2.80891 -5.35447,-2.77872 -5.34976,-5.65509 0.0104,-6.33729 l 3.92859,-0.5 -4.23786,-2.92708 c -3.60783,-2.49191 -3.98848,-3.06664 -2.56043,-3.86582 0.9226,-0.51631 3.42427,-0.70444 5.55928,-0.41808 4.44656,0.59641 4.57534,0.4081 1.97856,-2.89318 -1.95411,-2.48425 -1.78865,-6.40122 0.2699,-6.38925 0.62335,0.004 2.48337,0.90066 4.13337,1.99341 5.76972,3.82114 6.96894,2.2872 3.05681,-3.91001 -1.34376,-2.12865 -2.16876,-4.14471 -1.83334,-4.48013 1.10655,-1.10654 4.8609,-0.6351 6.8354,0.85834 1.06762,0.8075 2.72863,1.4825 3.69113,1.5 1.87343,0.0341 2.40906,-2.44284 0.75,-3.4682 -1.34359,-0.83038 -1.27768,-6.21035 0.0864,-7.0534 0.59752,-0.36929 2.53145,0.72915 4.29761,2.44098 1.76615,1.71183 3.71774,3.11242 4.33686,3.11242 2.01457,0 7.27912,-5.12697 7.27912,-7.08889 0,-1.80591 -0.92808,-1.91111 -16.86043,-1.91111 -9.27323,0 -18.83573,-0.24437 -21.25,-0.54304 -2.41426,-0.29867 -4.99624,-0.13232 -5.73772,0.36968 -0.96932,0.65624 -1.73839,6.49916 -2.73687,20.79304 -1.40503,20.11387 -4.5273,43.72516 -6.99271,52.88032 -2.98988,11.10281 -5.41429,30.23139 -5.41824,42.75 l -0.004,12.75 8.39301,0 c 9.09282,0 9.60699,-0.32 9.60699,-5.97906 0,-2.96614 6.71704,-17.02094 8.13462,-17.02094 0.94229,0 1.70218,2.9011 2.09544,8 0.23097,2.99468 0.63088,3.5 2.76994,3.5 2.26037,0 2.54793,-0.47184 3,-4.92245 0.5752,-5.66283 2.49084,-7.02882 4.07929,-2.90883 1.0738,2.78511 0.73168,13.19671 -0.608,18.50305 -1.062,4.20648 2.6173,5.38382 22.52871,7.20899 29.25682,2.68181 39.16609,3.66195 47,4.64884 20.58723,2.59353 40.01734,3.9738 56.3901,4.00584 13.81377,0.027 18.70296,0.37446 20.6099,1.46456 3.67186,2.09903 4,1.89394 4,-2.5 0,-3.31599 0.33761,-4 1.97432,-4 2.13385,0 5.02568,4.54075 5.02568,7.89132 0,2.44826 0.82087,2.98132 6.23464,4.04864 7.1913,1.41775 7.77628,1.27883 9.22122,-2.18996 z M 384.35565,376.80693 c -1.12443,-0.37378 -4.17842,-2.47961 -6.78665,-4.67961 -6.14919,-5.18675 -12.08465,-8.5 -15.22716,-8.5 -3.47555,0 -4.0208,-2.32705 -1.50068,-6.40469 6.13391,-9.92487 18.31603,-15.21681 16.57773,-7.2014 -2.15281,9.92674 -2.0612,10.54832 2.08835,14.17065 4.25192,3.71168 7.98445,4.81622 16.39283,4.85103 7.05269,0.0292 12.64245,-2.69808 16.11125,-7.86076 2.8869,-4.29664 4.97701,-5.45178 8.60843,-4.75759 3.14071,0.60039 5.37807,5.18919 6.02874,12.36491 0.55871,6.16155 0.34499,6.53765 -2.6516,4.66624 -1.46898,-0.91739 -3.03918,-0.82334 -7.23644,0.43344 -2.94821,0.88278 -8.96038,1.87128 -13.36038,2.19668 -4.4,0.32539 -10.025,0.77367 -12.5,0.99617 -2.475,0.2225 -5.41999,0.0987 -6.54442,-0.27507 z m 62.31913,-14.93777 c -7.1914,-4.17279 -9.77878,-8.33301 -9.75571,-15.68612 0.0157,-5.00551 0.5491,-6.90005 3.07564,-10.92429 2.98866,-4.7603 3.13834,-4.85116 6.731,-4.08598 2.0209,0.43043 5.78431,0.843 8.36313,0.91682 6.7583,0.19348 9.42891,1.96234 10.7232,7.10242 2.295,9.11424 0.12291,17.61239 -5.73603,22.44182 -4.49018,3.70118 -7.34187,3.75126 -13.40123,0.23533 z m 10.1311,-6.00139 c 3.24489,-3.101 5.47564,-9.87244 4.51424,-13.70298 -0.71834,-2.86209 -0.70536,-2.85837 -8.92005,-2.55388 -8.76095,0.32474 -9.83745,1.15269 -9.26361,7.12476 0.49537,5.15547 2.35186,8.01506 6.70011,10.32039 3.60622,1.91192 3.75107,1.88723 6.96931,-1.18829 z m -3.67688,-3.75884 c -1.9217,-2.18059 -2.64576,-7.10596 -1.17797,-8.0131 1.79749,-1.11092 3.94904,2.27934 3.94904,6.22262 0,3.56882 -0.76708,4.06446 -2.77107,1.79048 z m 14.409,-23.8945 c -1.57414,-1.28753 -4.72414,-2.9279 -7,-3.64526 -5.77945,-1.82171 -15.63793,-6.7874 -15.63793,-7.87679 0,-2.86916 15.86643,-2.17553 22,0.96177 4.52004,2.31198 12.00715,7.7697 11.9754,8.72944 -0.0253,0.76494 -6.49864,4.27209 -7.7665,4.20777 -0.3899,-0.0198 -1.99683,-1.0894 -3.57097,-2.37693 z m -68.44312,-54.94338 c -1.79902,-1.32728 -4.88901,-4.49009 -6.86665,-7.02848 -1.97764,-2.53839 -4.38737,-4.61525 -5.35495,-4.61525 -2.5829,0 -3.13377,-2.58015 -1.0898,-5.10434 l 1.78313,-2.20207 2.91673,2.21029 c 1.6042,1.21567 4.94173,4.86864 7.41673,8.11771 2.475,3.24908 5.31309,6.18684 6.30687,6.52835 2.10886,0.72472 1.86475,3.79333 -0.33548,4.21705 -0.8281,0.15948 -2.97756,-0.79599 -4.77658,-2.12326 z M 305.90007,374.6625 c 0,-1.08065 -0.7875,-2.37747 -1.75,-2.88183 -2.20462,-1.15524 -6.25,0.28885 -6.25,2.23109 0,1.71139 1.4842,2.4285 5.25,2.53661 2.09371,0.0601 2.75,-0.38996 2.75,-1.88587 z m 47,-47.24291 c 2.475,-1.15767 6.20536,-3.89141 8.2897,-6.07498 3.90411,-4.09 7.35791,-9.70552 5.98598,-9.7326 -0.42662,-0.008 -0.18055,-0.39265 0.54683,-0.85383 1.50802,-0.95614 2.08788,-12.15057 0.97099,-18.74556 -1.77172,-10.46166 -8.96543,-20.09912 -20.42936,-27.36932 -5.19664,-3.29562 -7.88483,-3.62259 -15.09979,-1.83664 -6.35403,1.57285 -21.26435,13.13078 -21.26435,16.48334 0,0.73553 -0.39541,1.33732 -0.87868,1.33732 -3.09006,0 -4.54812,18.01624 -1.97918,24.45523 2.49278,6.24806 16.86687,22.27527 18.86832,21.0383 0.54425,-0.33636 0.98954,-0.18749 0.98954,0.33082 0,0.89392 1.22455,1.46367 7,3.25693 3.77793,1.17304 11.95127,0.0725 17,-2.28901 z m -17.42857,-29.3637 c -3.04752,-3.04752 -1.62055,-9.75137 2.43306,-11.43043 3.64203,-1.50858 6.00455,-0.26336 8.5509,4.50693 l 1.94461,3.643 -2.80576,2.42597 c -3.21217,2.77735 -7.81171,3.16563 -10.12281,0.85453 z m 152.54899,-28.99084 c 2.45025,-1.26708 2.79737,-1.83186 1.83704,-2.98899 -0.65124,-0.7847 -1.69559,-1.13823 -2.32077,-0.78563 -2.54264,1.43405 -4.55755,3.65593 -4.05409,4.47054 0.71916,1.16363 1.03573,1.11508 4.53782,-0.69592 z m -11.0954,-2.68773 c 4.26896,-2.89243 4.90675,-4.75 1.63089,-4.75 -1.52133,0 -3.32749,1.03832 -4.58333,2.63486 -3.73828,4.75246 -2.37814,5.72687 2.95244,2.11514 z M 498.86436,260.02 c 1.26516,-1.2033 0.96723,-1.39268 -2.19099,-1.39268 -3.73779,0 -5.39452,1.18583 -4.24816,3.04068 0.76444,1.23688 4.37843,0.31193 6.43915,-1.648 z"
       id="path3058"
       inkscape:connector-curvature="0" />
  </g>
  <g
     inkscape:groupmode="layer"
     id="layer6"
     inkscape:label="letras"
     style="opacity:0.95999995">
    <text
       xml:space="preserve"
       style="font-size:40px;font-style:normal;font-weight:normal;line-height:125%;letter-spacing:0px;word-spacing:0px;fill:#000000;fill-opacity:1;stroke:none;font-family:Sans"
       x="-306.08099"
       y="255.39244"
       id="text4667-0"
       sodipodi:linespacing="125%"
       transform="matrix(-0.02189399,-0.9997603,0.9997603,-0.02189399,0,0)"><tspan
         sodipodi:role="line"
         id="tspan4669-4"
         x="-306.08099"
         y="255.39244"
         style="font-size:24px;font-style:normal;font-variant:normal;font-weight:normal;font-stretch:normal;fill:#eee0e0;fill-opacity:1;font-family:Sans;-inkscape-font-specification:Sans">chapi.org</tspan></text>
  </g>
</svg>
